# xmcd CD database file
#
# Track frame offsets:
#	150
#	60011
#	76004
#	88969
#	104637
#	122573
#	139822
#	153929
#	171183
#	185901
#	201439
#
# Disc length: 3545 seconds
#
# Revision: 0
# Processed by: cddbd v1.5.2PL0 Copyright (c) Steve Scherf et al.
# Submitted via: CDex 1.70beta2
#
DISCID=930dd70b
DTITLE=Fruko y sus Tesos - The Early Recordings of "Fruko y sus Tesos"
DYEAR=2007
DGENRE=Salsa
TTITLE0=FULL SALSA PART I
TTITLE1=MI VERDADERO SON
TTITLE2=LOS NICHES
TTITLE3=LA FRUTA BOMBA
TTITLE4=DESCARGA FRUKO
TTITLE5=A BAILAR ORIZA
TTITLE6=LAMENTO CUBANO
TTITLE7=EL MUERTO VIVO
TTITLE8=TIHUANACO
TTITLE9=MANA MANA
TTITLE10=FULL SALSA PART II
EXTD=YEAR: 2007
EXTT0=
EXTT1=
EXTT2=
EXTT3=
EXTT4=
EXTT5=
EXTT6=
EXTT7=
EXTT8=
EXTT9=
EXTT10=
PLAYORDER=
